<svg xmlns="http://www.w3.org/2000/svg" width="120" height="120" fill="none" viewBox="0 0 120 120">
  <path fill="#EBEBF0" d="M60 0C44.087 0 28.826 6.321 17.574 17.574 6.32 28.826 0 44.087 0 60s6.321 31.174 17.574 42.426C28.826 113.679 44.087 120 60 120V0z" transform="rotate(90 90 90) translate(0 60)"/>
  <path fill="#A4A3AE" d="M44.193 60.672c-.133-.033-.266 0-.382.083-.432.366-.93.665-1.479.864-.515.2-1.08.3-1.678.3-1.346 0-2.575-.549-3.456-1.43-.88-.88-1.428-2.11-1.428-3.455 0-.565.1-1.113.265-1.611.183-.532.449-1.014.798-1.43.15-.182.116-.448-.066-.597-.117-.084-.25-.117-.383-.084-1.412.383-2.641 1.23-3.522 2.36-.847 1.113-1.362 2.492-1.362 4.004 0 1.81.731 3.455 1.927 4.651 1.196 1.197 2.841 1.927 4.652 1.927 1.528 0 2.94-.531 4.07-1.412 1.147-.897 1.977-2.176 2.326-3.638.083-.25-.05-.482-.282-.532zm-2.542 3.472c-.964.765-2.193 1.23-3.539 1.23-1.578 0-3.007-.648-4.037-1.678-1.03-1.03-1.678-2.459-1.678-4.037 0-1.313.432-2.509 1.18-3.472.515-.665 1.163-1.213 1.91-1.595-.083.183-.166.365-.232.565-.216.598-.316 1.229-.316 1.894 0 1.578.648 3.023 1.678 4.053 1.03 1.03 2.475 1.678 4.054 1.678.697 0 1.362-.116 1.977-.349.216-.083.432-.166.631-.266-.399.765-.947 1.446-1.628 1.977z" transform="translate(23 -20)"/>
  <path fill="#A4A3AE" d="M56.574 11.785l-1.963 1.014v-1.625L56.925 9.9h1.417V19h-1.768v-7.215zm3.183 5.226l4.68-4.251v-.923l-.43-.429h-2.106l-.429.429v.923h-1.767v-1.456L61.109 9.9H64.8l1.404 1.404v1.976l-4.614 4.108v.13h4.666V19h-6.5v-1.989zM21.205 31.596v-1.157h1.768v.598l.455.455h2.21l.455-.455v-2.093l-.741.741h-2.873l-1.404-1.404v-2.977l1.404-1.404h3.978l1.404 1.404v6.292L26.457 33h-3.848l-1.404-1.404zm4.043-3.419l.845-.845v-1.469l-.455-.455h-2.34l-.455.455v1.859l.455.455h1.95zM92.205 93.596v-1.157h1.768v.598l.455.455h2.21l.455-.455v-2.093l-.741.741h-2.873l-1.404-1.404v-2.977l1.404-1.404h3.978l1.404 1.404v6.292L97.457 95h-3.848l-1.404-1.404zm4.043-3.419l.845-.845v-1.469l-.455-.455h-2.34l-.455.455v1.859l.455.455h1.95zM56.574 102.785l-1.963 1.014v-1.625l2.314-1.274h1.417v9.1h-1.768v-7.215zm3.183 5.226l4.68-4.251v-.923l-.43-.429h-2.106l-.429.429v.923h-1.767v-1.456l1.404-1.404H64.8l1.404 1.404v1.976l-4.614 4.108v.13h4.666V110h-6.5v-1.989zM7.172 63.596v-6.292L8.576 55.9H12.5l1.405 1.404v1.3h-1.769v-.741l-.455-.455H9.395l-.455.455v2.145l.767-.741h2.846l1.404 1.404v2.925L12.553 65H8.576l-1.404-1.404zm4.563-.104l.455-.455V61.23l-.455-.455H9.889l-.95.975v1.287l.456.455h2.34zM106.172 63.596v-6.292l1.404-1.404h3.926l1.404 1.404v1.3h-1.768v-.741l-.455-.455h-2.288l-.455.455v2.145l.767-.741h2.847l1.404 1.404v2.925L111.554 65h-3.978l-1.404-1.404zm4.563-.104l.455-.455V61.23l-.455-.455h-1.846l-.949.975v1.287l.455.455h2.34zM92.538 31.596v-1.43h1.769v.897l.428.429h2.34l.43-.429v-1.469l-.416-.416h-2.6V27.67h2.6l.415-.416v-1.417l-.428-.429h-2.262l-.43.429v.897h-1.767v-1.43L94.02 23.9h3.849l1.403 1.404v2.47l-.663.65.663.663v2.509L97.868 33h-3.925l-1.404-1.404zM20.538 94.596v-1.43h1.768v.897l.43.429h2.34l.428-.429v-1.469l-.416-.416h-2.6V90.67h2.6l.416-.416v-1.417l-.428-.429h-2.262l-.43.429v.897h-1.768v-1.43L22.02 86.9h3.849l1.404 1.404v2.47l-.663.65.663.663v2.509L25.869 96h-3.927l-1.404-1.404z"/>
  <g clip-path="url(#clip0)" transform="translate(-20 20)">
    <path fill="#A4A3AE" d="M82 65.356c-.302 0-.547.244-.547.546v1.552c0 .302.245.546.546.546.302 0 .546-.245.546-.546v-1.552c0-.302-.244-.546-.546-.546zM82 54.645c.3 0 .545-.245.545-.546v-1.553c0-.301-.244-.546-.546-.546-.301 0-.546.245-.546.546V54.1c0 .301.245.546.546.546zM77.442 63.787l-1.098 1.098c-.214.213-.214.558 0 .772.106.106.246.16.386.16s.279-.054.386-.16l1.098-1.098c.213-.213.213-.559 0-.772-.213-.213-.56-.213-.772 0zM86.17 56.373c.14 0 .28-.053.387-.16l1.098-1.097c.213-.213.213-.56 0-.773-.213-.213-.559-.213-.772 0l-1.098 1.098c-.213.213-.213.559 0 .772.106.107.246.16.386.16zM76.644 60c0-.301-.244-.546-.546-.546h-1.552c-.302 0-.546.245-.546.546 0 .302.245.546.546.546h1.552c.302 0 .546-.244.546-.546zM89.454 59.454h-1.552c-.302 0-.546.245-.546.546 0 .302.244.546.546.546h1.552c.302 0 .547-.244.547-.546 0-.301-.245-.546-.547-.546zM77.441 56.213c.107.106.246.16.386.16s.28-.053.386-.16c.213-.213.213-.559 0-.772l-1.097-1.098c-.214-.213-.56-.213-.772 0-.214.213-.214.56 0 .772l1.097 1.098zM86.56 63.787c-.214-.213-.56-.214-.773 0-.213.213-.213.559 0 .772l1.097 1.097c.107.107.247.16.386.16.14 0 .28-.053.386-.16.214-.213.214-.559 0-.772l-1.097-1.097zM82 55.75c-2.344 0-4.25 1.907-4.25 4.25s1.906 4.25 4.25 4.25c2.343 0 4.25-1.907 4.25-4.25s-1.907-4.25-4.25-4.25zm0 7.408c-1.742 0-3.158-1.417-3.158-3.158 0-1.741 1.416-3.158 3.157-3.158 1.742 0 3.158 1.417 3.158 3.158 0 1.741-1.416 3.158-3.158 3.158z"/>
  </g>
  <rect width="119" height="119" x=".5" y=".5" stroke="#EBEBF0" rx="59.5"/>
  <defs>
    <clipPath id="clip0">
      <path fill="#fff" d="M0 0H16V16H0z" transform="translate(74 52)"/>
    </clipPath>
  </defs>
</svg>
